General
Complete name                            : Quantum of Solace (HD 1080p).m4v
Format                                   : MPEG-4
Format profile                           : Base Media / Version 2
Codec ID                                 : mp42
File size                                : 12.0 GiB
Duration                                 : 1h 46mn
Overall bit rate mode                    : Variable
Overall bit rate                         : 16.2 Mbps
Movie name                               : Quantum of Solace
Performer                                : Daniel Craig, Olga Kurylenko, Mathieu Amalric, Judi Dench, Giancarlo Giannini, Gemma Arterton, Jeffrey Wright, David Harbour, Jesper Christensen, Anatole Taubman, Rory Kinnear, Tim Pigott-Smith, Joaquin Cosio, Jesus Ochoa, Glenn Foster, Paul Ritter, Simon Kassianides, Stana Katic, Lucrezia Lante della Rovere, Neil Jackson, Oona Chaplin, Laurence Richardson, Rachel McDowall, Gustavo Nanez, Mark Wakeling, Sarah Hadland, David Decio, Aaron King, Alexandra Prusa, Brandon Jovanovich, Alexandre Krawetz, Fernando Guillén Cuervo
Genre                                    : Adventure, Action, Thriller, Crime, Foreign
Recorded date                            : 2008-10-31
Encoded date                             : UTC 2013-04-07 06:18:09
Tagged date                              : UTC 2013-04-07 18:04:33
Writing application                      : HandBrake 5384svn 2013040601
Cover                                    : Yes
desc                                     : Quantum of Solace continues the high octane adventures of James Bond in Casino Royale. Betrayed by Vesper, the woman he loved, 007 fights the urge to make his latest mission personal. Pursuing his determination to uncover the truth, Bond and M interrogate Mr White who reveals the organization which blackmailed Vesper is far more complex and dangerous than anyone had imagined.

Video #1
ID                                       : 1
Format                                   : AVC
Format/Info                              : Advanced Video Codec
Format profile                           : High@L4.0
Format settings, CABAC                   : Yes
Format settings, ReFrames                : 4 frames
Codec ID                                 : avc1
Codec ID/Info                            : Advanced Video Coding
Duration                                 : 1h 46mn
Bit rate mode                            : Variable
Bit rate                                 : 15.3 Mbps
Width                                    : 1 920 pixels
Height                                   : 798 pixels
Display aspect ratio                     : 2.40:1
Frame rate mode                          : Variable
Frame rate                               : 23.976 fps
Minimum frame rate                       : 23.810 fps
Maximum frame rate                       : 30.000 fps
Color space                              : YUV
Chroma subsampling                       : 4:2:0
Bit depth                                : 8 bits
Scan type                                : Progressive
Bits/(Pixel*Frame)                       : 0.415
Stream size                              : 11.3 GiB (94%)
Writing library                          : x264 core 130
Encoding settings                        : cabac=1 / ref=4 / deblock=1:0:0 / analyse=0x3:0x133 / me=umh / subme=10 / psy=1 / psy_rd=1.00:0.15 / mixed_ref=1 / me_range=32 / chroma_me=1 / trellis=2 / 8x8dct=1 / cqm=0 / deadzone=21,11 / fast_pskip=1 / chroma_qp_offset=-3 / threads=12 / lookahead_threads=1 / sliced_threads=0 / nr=0 / decimate=1 / interlaced=0 / bluray_compat=0 / constrained_intra=0 / bframes=4 / b_pyramid=2 / b_adapt=2 / b_bias=0 / direct=3 / weightb=1 / open_gop=0 / weightp=2 / keyint=300 / keyint_min=30 / scenecut=40 / intra_refresh=0 / rc_lookahead=60 / rc=crf / mbtree=1 / crf=18.0 / qcomp=0.60 / qpmin=0 / qpmax=69 / qpstep=4 / vbv_maxrate=25000 / vbv_bufsize=31250 / crf_max=0.0 / nal_hrd=none / ip_ratio=1.40 / aq=1:1.00
Language                                 : English
Encoded date                             : UTC 2013-04-07 06:18:09
Tagged date                              : UTC 2013-04-07 13:37:13
Color primaries                          : BT.709
Transfer characteristics                 : BT.709
Matrix coefficients                      : BT.709

Audio #1
ID                                       : 2
Format                                   : AAC
Format/Info                              : Advanced Audio Codec
Format profile                           : LC
Codec ID                                 : 40
Duration                                 : 1h 46mn
Bit rate mode                            : Variable
Bit rate                                 : 331 Kbps
Maximum bit rate                         : 499 Kbps
Channel(s)                               : 2 channels
Channel positions                        : Front: L R
Sampling rate                            : 48.0 KHz
Compression mode                         : Lossy
Delay relative to video                  : 83ms
Stream size                              : 251 MiB (2%)
Language                                 : English
Encoded date                             : UTC 2013-04-07 06:18:09
Tagged date                              : UTC 2013-04-07 13:37:12

Audio #2
ID                                       : 3
Format                                   : AC-3
Format/Info                              : Audio Coding 3
Mode extension                           : CM (complete main)
Format settings, Endianness              : Big
Codec ID                                 : ac-3
Duration                                 : 1h 46mn
Bit rate mode                            : Constant
Bit rate                                 : 640 Kbps
Channel(s)                               : 6 channels
Channel positions                        : Front: L C R, Side: L R, LFE
Sampling rate                            : 48.0 KHz
Bit depth                                : 16 bits
Compression mode                         : Lossy
Delay relative to video                  : 83ms
Stream size                              : 486 MiB (4%)
Language                                 : English
Encoded date                             : UTC 2013-04-07 06:18:09
Tagged date                              : UTC 2013-04-07 13:37:12